<svg xmlns="http://www.w3.org/2000/svg" xmlns:xlink="http://www.w3.org/1999/xlink" width="1024" height="1024"><defs><radialGradient xlink:href="#a" id="p" cx="642.274" cy="368.132" r="257" fx="642.274" fy="368.132" gradientTransform="matrix(-1.24514 1.3108 -1.2767 -1.21275 1941.713 -75.434)" gradientUnits="userSpaceOnUse"/><radialGradient xlink:href="#b" id="d" cx="372.171" cy="499.519" r="187.582" fx="372.171" fy="499.519" gradientTransform="matrix(1.19 -3.4173 2.32522 .8097 -1232.205 1371.246)" gradientUnits="userSpaceOnUse"/><radialGradient xlink:href="#c" id="q" cx="512" cy="511.97" r="257" fx="512" fy="511.97" gradientTransform="matrix(1 0 0 .99988 0 .06)" gradientUnits="userSpaceOnUse"/><radialGradient xlink:href="#b" id="j" cx="372.171" cy="499.519" r="187.582" fx="372.171" fy="499.519" gradientTransform="matrix(1.19 -3.4173 2.32522 .8097 -1232.205 1371.246)" gradientUnits="userSpaceOnUse"/><radialGradient xlink:href="#b" id="k" cx="372.171" cy="499.519" r="187.582" fx="372.171" fy="499.519" gradientTransform="matrix(1.19 -3.4173 2.32522 .8097 -1232.205 1371.246)" gradientUnits="userSpaceOnUse"/><radialGradient xlink:href="#b" id="m" cx="372.171" cy="499.519" r="187.582" fx="372.171" fy="499.519" gradientTransform="matrix(1.19 -3.4173 2.32522 .8097 -1232.205 1371.246)" gradientUnits="userSpaceOnUse"/><radialGradient xlink:href="#b" id="n" cx="372.171" cy="499.519" r="187.582" fx="372.171" fy="499.519" gradientTransform="matrix(1.19 -3.4173 2.32522 .8097 -1232.205 1371.246)" gradientUnits="userSpaceOnUse"/><radialGradient xlink:href="#b" id="e" cx="372.171" cy="499.519" r="187.582" fx="372.171" fy="499.519" gradientTransform="matrix(1.19 -3.4173 2.32522 .8097 -1232.205 1371.246)" gradientUnits="userSpaceOnUse"/><radialGradient xlink:href="#b" id="g" cx="372.171" cy="499.519" r="187.582" fx="372.171" fy="499.519" gradientTransform="matrix(1.19 -3.4173 2.32522 .8097 -1232.205 1371.246)" gradientUnits="userSpaceOnUse"/><radialGradient xlink:href="#b" id="h" cx="372.171" cy="499.519" r="187.582" fx="372.171" fy="499.519" gradientTransform="matrix(1.19 -3.4173 2.32522 .8097 -1232.205 1371.246)" gradientUnits="userSpaceOnUse"/><filter id="f" width="1.014" height="1.021" x="-.007" y="-.011" color-interpolation-filters="sRGB"><feGaussianBlur stdDeviation=".327"/></filter><filter id="i" width="1.03" height="1.079" x="-.015" y="-.04" color-interpolation-filters="sRGB"><feGaussianBlur stdDeviation="1.319"/></filter><filter id="r" width="1.005" height="1.005" x="-.003" y="-.003" color-interpolation-filters="sRGB"><feGaussianBlur stdDeviation=".16"/></filter><filter id="l" width="1.014" height="1.021" x="-.007" y="-.011" color-interpolation-filters="sRGB"><feGaussianBlur stdDeviation=".327"/></filter><filter id="o" width="1.03" height="1.079" x="-.015" y="-.04" color-interpolation-filters="sRGB"><feGaussianBlur stdDeviation="1.319"/></filter><filter id="s" width="1.012" height="1.012" x="-.006" y="-.006" color-interpolation-filters="sRGB"><feGaussianBlur stdDeviation=".409"/></filter><linearGradient id="c"><stop offset=".159" stop-color="#204080" stop-opacity=".747"/><stop offset="1" stop-color="#4080ff" stop-opacity=".499"/></linearGradient><linearGradient id="b"><stop offset="0" stop-color="#204080" stop-opacity=".75"/><stop offset="1" stop-color="#4080ff" stop-opacity=".503"/></linearGradient><linearGradient id="a"><stop offset=".146" stop-color="#4080ff"/><stop offset=".575" stop-color="#204080"/></linearGradient></defs><g fill="url(#d)" stroke="#c0e0ff" stroke-linecap="square" stroke-opacity=".75" stroke-width="2" paint-order="fill markers stroke" transform="matrix(-1 0 0 1 1024 0)"><path fill="url(#e)" d="M432 416s20 10-45-27c-36-22-53 28-106-5C166 312 130 66 130 66c0-3 132 85 213 161 71 66 89 189 89 189z" filter="url(#f)" style="mix-blend-mode:normal"/><path fill="url(#g)" d="M379.84 511.258s-65.541 42.364-136.348 32.613C148.902 530.846 64 408 64 408s131.273-58.633 232-16c92.146 39.001 83.84 119.258 83.84 119.258z" filter="url(#f)" style="font-variation-settings:normal;-inkscape-stroke:none"/><path fill="url(#h)" d="M376.115 626.577C352.83 677.401 388.718 730.717 320 800 232.074 888.649 96.35 925.766 96.35 925.766c.435-4.08 31.973-182.961 95.92-299.189 54.843-99.683 144.565-129.335 159.865-121.892 12.123 5.898 23.98 121.892 23.98 121.892z" filter="url(#f)" style="font-variation-settings:normal;-inkscape-stroke:none"/></g><g fill="none" stroke="#c0e0ff" stroke-linejoin="bevel" stroke-opacity=".75" stroke-width="2" paint-order="stroke fill markers"><path d="M130.222 66.351S229.94 245.067 336 328c97.155 75.97 96 96 96 96" filter="url(#i)" style="mix-blend-mode:normal" transform="matrix(-1 0 0 1 1024 0)"/><path d="M96.35 925.766C141.898 859.651 209.986 802.6 256 736c54.736-79.223 85.564-166.088 112.122-216.04M65.675 406.625s104.155 22.328 154.89 39.089c54.287 17.934 159.275 65.544 159.275 65.544" filter="url(#i)" style="font-variation-settings:normal;-inkscape-stroke:none" transform="matrix(-1 0 0 1 1024 0)"/></g><g fill="url(#j)" stroke="#c0e0ff" stroke-linecap="square" stroke-opacity=".75" stroke-width="2" paint-order="fill markers stroke"><path fill="url(#k)" d="M432 416s20 10-45-27c-36-22-53 28-106-5C166 312 130 66 130 66c0-3 132 85 213 161 71 66 89 189 89 189z" filter="url(#l)" style="mix-blend-mode:normal"/><path fill="url(#m)" d="M379.84 511.258s-65.541 42.364-136.348 32.613C148.902 530.846 64 408 64 408s131.273-58.633 232-16c92.146 39.001 83.84 119.258 83.84 119.258z" filter="url(#l)" style="font-variation-settings:normal;-inkscape-stroke:none"/><path fill="url(#n)" d="M376.115 626.577C352.83 677.401 388.718 730.717 320 800 232.074 888.649 96.35 925.766 96.35 925.766c.435-4.08 31.973-182.961 95.92-299.189 54.843-99.683 144.565-129.335 159.865-121.892 12.123 5.898 23.98 121.892 23.98 121.892z" filter="url(#l)" style="font-variation-settings:normal;-inkscape-stroke:none"/></g><g fill="none" stroke="#c0e0ff" stroke-linejoin="bevel" stroke-opacity=".75" stroke-width="2" paint-order="stroke fill markers"><path d="M130.222 66.351S229.94 245.067 336 328c97.155 75.97 96 96 96 96" filter="url(#o)" style="mix-blend-mode:normal"/><path d="M96.35 925.766C141.898 859.651 209.986 802.6 256 736c54.736-79.223 85.564-166.088 112.122-216.04M65.675 406.625s104.155 22.328 154.89 39.089c54.287 17.934 159.275 65.544 159.275 65.544" filter="url(#o)" style="font-variation-settings:normal;-inkscape-stroke:none"/></g><path fill="url(#p)" fill-rule="evenodd" stroke="url(#q)" stroke-linecap="round" stroke-linejoin="round" stroke-opacity=".75" stroke-width="2" d="M512 256c-141.385 0-256 114.615-256 256 0 140.585 113.334 254.653 253.615 255.94v-24.422C506.384 742.49 504 739.572 504 736c0-.926.173-1.8.467-2.617l-115.594-87.201c-1.36 1.076-3.004 1.818-4.873 1.818-4.413 0-7.99-3.582-7.99-8 0-3.717 2.585-6.703 6.017-7.602l.412-110.804c-3.643-.745-6.439-3.819-6.439-7.686 0-3.887 2.825-6.974 6.496-7.697l.307-82.746c-3.116-1.092-5.383-3.981-5.383-7.473 0-4.418 3.577-8 7.99-8s7.992 3.582 7.992 8c0 3.925-2.877 7.039-6.601 7.719l-.305 82.703c3.168 1.063 5.486 3.965 5.486 7.494 0 3.55-2.347 6.46-5.543 7.506l-.41 110.996c3.404.917 5.961 3.893 5.961 7.59a8 8 0 0 1-.615 3.057l115.428 87.078c.827-.708 1.744-1.313 2.812-1.653v-16.505a8 8 0 0 1-5.615-7.63 8 8 0 0 1 5.615-7.628v-17.09A8 8 0 0 1 504 672a8 8 0 0 1 .838-3.535l-51.899-38.33C451.57 631.242 449.9 632 448 632c-4.413 0-7.99-3.582-7.99-8 0-3.707 2.572-6.688 5.99-7.596v-48.808c-3.418-.908-5.99-3.888-5.99-7.596 0-3.707 2.572-6.688 5.99-7.596v-64.81c-3.415-.91-5.982-3.889-5.982-7.594 0-4.419 3.578-8 7.992-8s7.99 3.582 7.99 8c0 3.711-2.577 6.694-6 7.598v64.806c3.418.908 5.99 3.889 5.99 7.596s-2.572 6.688-5.99 7.596v48.808c3.418.908 5.99 3.889 5.99 7.596 0 1.055-.227 2.05-.597 2.973l52.064 38.457a8 8 0 0 1 2.158-1.059v-48.744A8 8 0 0 1 504 608a8 8 0 0 1 5.615-7.627v-64.746A8 8 0 0 1 504 528a8 8 0 0 1 5.615-7.627v-64.742A8 8 0 0 1 503.99 448a8 8 0 0 1 5.625-7.63v-48.938c-3.337-1.03-5.61-4.08-5.615-7.532 0-4.363 3.582-7.9 8-7.9s8 3.537 8 7.9c-.004 3.453-2.278 6.503-5.615 7.532v48.935a8 8 0 0 1 5.607 7.633 8 8 0 0 1-5.607 7.623v64.742A8 8 0 0 1 520 528a8 8 0 0 1-5.615 7.627v64.738a8 8 0 0 1 2.873 1.61l51.406-38.829a8 8 0 0 1-.654-3.146 8 8 0 0 1 5.832-7.697l-.178-65.032a8 8 0 0 1-.039-14.521l-.303-111.441a8 8 0 0 1-5.312-7.518c0-4.418 3.577-8 7.99-8s7.99 3.582 7.99 8a8 8 0 0 1-4.547 7.209l-.44 111.258a8 8 0 0 1 5.983 7.742 8 8 0 0 1-6.045 7.742l-.255 64.723A8 8 0 0 1 583.99 560c0 4.418-3.577 8-7.99 8a8 8 0 0 1-3.684-.922l-52.435 39.565q.117.673.119 1.357a8 8 0 0 1-5.799 7.688l.08 48.648a7.999 7.999 0 0 1 .024 15.316l.027 17.047c.541.166 1.063.39 1.557.666l117.048-85.66a8 8 0 0 1-.927-3.705 8 8 0 0 1 5.99-7.73v-80.54a8 8 0 0 1-5.99-7.73 8 8 0 0 1 5.99-7.73v-80.54a8 8 0 0 1-5.99-7.73c0-4.418 3.577-8 7.99-8s7.99 3.582 7.99 8a8 8 0 0 1-5.99 7.73v80.526a8 8 0 0 1 5.99 7.744 8 8 0 0 1-5.99 7.73v80.526a8 8 0 0 1 5.99 7.744c0 4.418-3.577 8-7.99 8a8 8 0 0 1-3.363-.746l-117.334 85.869a8 8 0 0 1 .68 3.225 8 8 0 0 1-5.626 7.632l.028 16.502C517.616 729.51 520 732.428 520 736s-2.384 6.49-5.615 7.518v24.421C654.665 766.653 768 652.585 768 512c0-141.385-114.615-256-256-256" filter="url(#r)" paint-order="fill markers stroke"/><ellipse cx="512" cy="512.643" fill="none" stroke="#c0e0ff" stroke-linecap="round" stroke-linejoin="round" stroke-width="4" filter="url(#s)" paint-order="fill markers stroke" rx="254.963" ry="256.643"/></svg>