<svg xmlns="http://www.w3.org/2000/svg" xmlns:xlink="http://www.w3.org/1999/xlink" width="1024" height="1280"><defs><linearGradient id="t"><stop offset="0" stop-color="#204080"/><stop offset=".25" stop-color="#4080ff" stop-opacity=".829"/><stop offset=".75" stop-color="#c7e8d9" stop-opacity=".827"/></linearGradient><linearGradient id="j"><stop offset=".44" stop-color="#204080"/><stop offset=".588" stop-color="#3060e0"/></linearGradient><linearGradient id="s"><stop offset=".018" stop-color="#4080ff"/><stop offset=".354" stop-color="#4080ff" stop-opacity="0"/></linearGradient><linearGradient id="r"><stop offset=".158" stop-color="#4080ff"/><stop offset=".604" stop-color="#4080ff" stop-opacity="0"/></linearGradient><linearGradient id="i"><stop offset=".335" stop-color="#4080ff"/><stop offset=".478" stop-color="#4080ff" stop-opacity="0"/></linearGradient><linearGradient id="h"><stop offset=".229" stop-color="#4080ff"/><stop offset=".609" stop-color="#4080ff" stop-opacity="0"/></linearGradient><linearGradient id="q"><stop offset=".229" stop-color="#4080ff"/><stop offset=".76" stop-color="#4080ff" stop-opacity="0"/></linearGradient><linearGradient id="p"><stop offset=".495" stop-color="#4080ff"/><stop offset=".932" stop-color="#4080ff" stop-opacity="0"/></linearGradient><linearGradient id="g"><stop offset=".47" stop-color="#4080ff"/><stop offset=".533" stop-color="#4080ff" stop-opacity="0"/></linearGradient><linearGradient id="f"><stop offset="0" stop-color="#4080ff"/><stop offset=".66" stop-color="#204080"/></linearGradient><linearGradient id="o"><stop offset=".718" stop-color="#204080" stop-opacity="0"/><stop offset=".925" stop-color="#204080"/></linearGradient><linearGradient id="n"><stop offset=".742" stop-color="#204080" stop-opacity="0"/><stop offset=".765" stop-color="#204080"/></linearGradient><linearGradient id="e"><stop offset=".23" stop-color="#204080" stop-opacity="0"/><stop offset=".899" stop-color="#4080ff"/></linearGradient><linearGradient id="m"><stop offset=".688" stop-color="#204080" stop-opacity="0"/><stop offset=".742" stop-color="#204080"/></linearGradient><linearGradient id="d"><stop offset="0" stop-color="#4080ff"/><stop offset=".714" stop-color="#204080"/></linearGradient><linearGradient id="b"><stop offset=".447" stop-color="#204080"/><stop offset=".517" stop-color="#4080ff"/></linearGradient><linearGradient id="l"><stop offset="0" stop-color="#204080" stop-opacity=".75"/><stop offset="1" stop-color="#4080ff" stop-opacity=".503"/></linearGradient><linearGradient id="a"><stop offset=".488" stop-color="#4080ff"/><stop offset=".5" stop-color="#204080"/></linearGradient><linearGradient id="k"><stop offset=".146" stop-color="#4080ff"/><stop offset=".575" stop-color="#204080"/></linearGradient><linearGradient xlink:href="#a" id="D" x1="768.314" x2="768.314" y1="799.904" y2="1184.533" gradientUnits="userSpaceOnUse"/><linearGradient xlink:href="#a" id="E" x1="768.314" x2="768.314" y1="799.904" y2="1184.533" gradientTransform="translate(-512.77)" gradientUnits="userSpaceOnUse"/><linearGradient xlink:href="#b" id="F" x1="512" x2="544" y1="992" y2="960" gradientUnits="userSpaceOnUse"/><linearGradient xlink:href="#c" id="G" x1="512" x2="544" y1="992" y2="960" gradientTransform="matrix(-1 0 0 1 1023.89 .11)" gradientUnits="userSpaceOnUse"/><linearGradient id="c"><stop offset=".438" stop-color="#204080"/><stop offset=".517" stop-color="#4080ff"/></linearGradient><linearGradient xlink:href="#d" id="H" x1="512" x2="512" y1="959.559" y2="963.559" gradientTransform="matrix(1.09821 0 0 2.01873 -50.284 -977.977)" gradientUnits="userSpaceOnUse"/><linearGradient xlink:href="#e" id="K" x1="519.329" x2="519.329" y1="982.211" y2="1000.87" gradientTransform="matrix(.8006 0 0 .7965 96.258 202.244)" gradientUnits="userSpaceOnUse"/><linearGradient xlink:href="#f" id="M" x1="512" x2="512" y1="898.066" y2="1275.25" gradientTransform="translate(.017 .011)" gradientUnits="userSpaceOnUse"/><linearGradient xlink:href="#g" id="N" x1="362.668" x2="362.668" y1="1071.096" y2="1096.844" gradientUnits="userSpaceOnUse"/><linearGradient xlink:href="#h" id="P" x1="394.987" x2="394.919" y1="1050.245" y2="1056.339" gradientTransform="matrix(1.00663 0 0 1.88213 -2.657 -927.315)" gradientUnits="userSpaceOnUse"/><linearGradient xlink:href="#h" id="R" x1="394.987" x2="394.919" y1="1050.245" y2="1056.339" gradientTransform="matrix(4.45645 0 0 1.88213 -1323.566 -927.315)" gradientUnits="userSpaceOnUse"/><linearGradient xlink:href="#h" id="S" x1="394.987" x2="394.919" y1="1050.245" y2="1056.339" gradientTransform="matrix(.82618 0 0 1.88212 174 -927.873)" gradientUnits="userSpaceOnUse"/><linearGradient xlink:href="#h" id="T" x1="394.987" x2="394.919" y1="1050.245" y2="1056.339" gradientTransform="matrix(1.0146 0 0 1.88212 142.573 -927.873)" gradientUnits="userSpaceOnUse"/><linearGradient xlink:href="#i" id="Z" x1="395.023" x2="395.112" y1="1048.61" y2="1057.523" gradientTransform="matrix(.54924 .85308 -1.5825 1.01886 1957.186 -348.99)" gradientUnits="userSpaceOnUse"/><linearGradient xlink:href="#h" id="U" x1="394.987" x2="394.919" y1="1050.245" y2="1056.339" gradientTransform="matrix(1.0146 0 0 1.88212 185.55 -927.873)" gradientUnits="userSpaceOnUse"/><linearGradient xlink:href="#h" id="V" x1="394.987" x2="394.919" y1="1050.245" y2="1056.339" gradientTransform="matrix(.84693 0 0 1.88212 289.686 -927.873)" gradientUnits="userSpaceOnUse"/><linearGradient xlink:href="#h" id="W" x1="394.987" x2="394.919" y1="1050.245" y2="1056.339" gradientTransform="matrix(-.84693 0 0 1.88212 1009.499 -927.866)" gradientUnits="userSpaceOnUse"/><linearGradient xlink:href="#h" id="Q" x1="394.987" x2="394.919" y1="1050.245" y2="1056.339" gradientTransform="matrix(1.00663 0 0 1.88213 297.459 -927.432)" gradientUnits="userSpaceOnUse"/><linearGradient xlink:href="#j" id="ab" x1="471.608" x2="552.425" y1="1329.17" y2="1027.556" gradientTransform="translate(0 18)" gradientUnits="userSpaceOnUse"/><radialGradient xlink:href="#k" id="B" cx="642.274" cy="368.132" r="257" fx="642.274" fy="368.132" gradientTransform="matrix(-1.24514 1.3108 -1.2767 -1.21275 1941.713 -75.434)" gradientUnits="userSpaceOnUse"/><radialGradient xlink:href="#l" id="u" cx="372.171" cy="499.519" r="187.582" fx="372.171" fy="499.519" gradientTransform="matrix(1.19 -3.4173 2.32522 .8097 -1232.205 1371.246)" gradientUnits="userSpaceOnUse"/><radialGradient xlink:href="#l" id="x" cx="372.171" cy="499.519" r="187.582" fx="372.171" fy="499.519" gradientTransform="matrix(1.19 -3.4173 2.32522 .8097 -1232.205 1371.246)" gradientUnits="userSpaceOnUse"/><radialGradient xlink:href="#l" id="y" cx="372.171" cy="499.519" r="187.582" fx="372.171" fy="499.519" gradientTransform="matrix(1.19 -3.4173 2.32522 .8097 -1232.205 1371.246)" gradientUnits="userSpaceOnUse"/><radialGradient xlink:href="#l" id="z" cx="372.171" cy="499.519" r="187.582" fx="372.171" fy="499.519" gradientTransform="matrix(1.19 -3.4173 2.32522 .8097 -1232.205 1371.246)" gradientUnits="userSpaceOnUse"/><radialGradient xlink:href="#m" id="I" cx="512.031" cy="992.015" r="9.329" fx="512.031" fy="992.015" gradientTransform="matrix(1 0 0 1.02267 0 -22.486)" gradientUnits="userSpaceOnUse"/><radialGradient xlink:href="#n" id="J" cx="512.031" cy="992.015" r="8.527" fx="512.031" fy="992.015" gradientTransform="matrix(1 0 0 1.01528 0 -15.159)" gradientUnits="userSpaceOnUse"/><radialGradient xlink:href="#o" id="L" cx="512.031" cy="992.015" r="9.329" fx="512.031" fy="992.015" gradientTransform="matrix(1 0 0 1.02267 .08 -22.486)" gradientUnits="userSpaceOnUse"/><radialGradient xlink:href="#p" id="aa" cx="350.421" cy="1109.762" r="13.77" fx="350.421" fy="1109.762" gradientTransform="matrix(1 0 0 .40684 0 658.261)" gradientUnits="userSpaceOnUse"/><radialGradient xlink:href="#q" id="O" cx="350.602" cy="1035.576" r="22.009" fx="350.602" fy="1035.576" gradientTransform="matrix(1.63165 .10694 -.04118 .30094 -178.816 701.454)" gradientUnits="userSpaceOnUse"/><radialGradient xlink:href="#r" id="X" cx="587.486" cy="1087.519" r="10.064" fx="587.486" fy="1087.519" gradientTransform="matrix(1.77627 .00267 -.00084 .55803 -455.137 486.348)" gradientUnits="userSpaceOnUse"/><radialGradient xlink:href="#s" id="Y" cx="587.782" cy="1086.361" r="10.064" fx="587.782" fy="1086.361" gradientTransform="matrix(.66757 -.0074 .00787 1.1186 248.563 -101.939)" gradientUnits="userSpaceOnUse"/><radialGradient xlink:href="#t" id="ac" cx="340.19" cy="1160.364" r="8.44" fx="340.19" fy="1160.364" gradientTransform="matrix(.79346 -.565 .56175 .7889 -581.71 437.18)" gradientUnits="userSpaceOnUse"/><radialGradient xlink:href="#t" id="ae" cx="340.19" cy="1160.364" r="8.44" fx="340.19" fy="1160.364" gradientTransform="matrix(.79346 -.565 .56175 .7889 -581.71 437.18)" gradientUnits="userSpaceOnUse"/><radialGradient xlink:href="#t" id="ag" cx="340.19" cy="1160.364" r="8.44" fx="340.19" fy="1160.364" gradientTransform="matrix(.79346 -.565 .56175 .7889 -581.71 437.18)" gradientUnits="userSpaceOnUse"/><radialGradient xlink:href="#t" id="am" cx="340.19" cy="1160.364" r="8.44" fx="340.19" fy="1160.364" gradientTransform="matrix(.79346 -.565 .56175 .7889 -581.71 437.18)" gradientUnits="userSpaceOnUse"/><radialGradient xlink:href="#t" id="ai" cx="340.19" cy="1160.364" r="8.44" fx="340.19" fy="1160.364" gradientTransform="matrix(.79346 -.565 .56175 .7889 -581.71 437.18)" gradientUnits="userSpaceOnUse"/><radialGradient xlink:href="#t" id="ak" cx="340.19" cy="1160.364" r="8.44" fx="340.19" fy="1160.364" gradientTransform="matrix(.79346 -.565 .56175 .7889 -581.71 437.18)" gradientUnits="userSpaceOnUse"/><filter id="v" width="1.014" height="1.021" x="-.007" y="-.011" color-interpolation-filters="sRGB"><feGaussianBlur stdDeviation=".327"/></filter><filter id="w" width="1.03" height="1.079" x="-.015" y="-.04" color-interpolation-filters="sRGB"><feGaussianBlur stdDeviation="1.319"/></filter><filter id="A" width="1.03" height="1.079" x="-.015" y="-.04" color-interpolation-filters="sRGB"><feGaussianBlur stdDeviation="1.319"/></filter><filter id="C" width="1.012" height="1.012" x="-.006" y="-.006" color-interpolation-filters="sRGB"><feGaussianBlur stdDeviation=".409"/></filter><filter id="ad" width="1.035" height="1.037" x="-.018" y="-.019" color-interpolation-filters="sRGB"><feGaussianBlur stdDeviation=".021"/></filter><filter id="af" width="1.035" height="1.037" x="-.018" y="-.019" color-interpolation-filters="sRGB"><feGaussianBlur stdDeviation=".021"/></filter><filter id="ah" width="1.035" height="1.037" x="-.018" y="-.019" color-interpolation-filters="sRGB"><feGaussianBlur stdDeviation=".021"/></filter><filter id="an" width="1.035" height="1.037" x="-.018" y="-.019" color-interpolation-filters="sRGB"><feGaussianBlur stdDeviation=".021"/></filter><filter id="aj" width="1.035" height="1.037" x="-.018" y="-.019" color-interpolation-filters="sRGB"><feGaussianBlur stdDeviation=".021"/></filter><filter id="al" width="1.035" height="1.037" x="-.018" y="-.019" color-interpolation-filters="sRGB"><feGaussianBlur stdDeviation=".021"/></filter></defs><g fill="url(#u)" stroke="#c0e0ff" stroke-linecap="square" stroke-opacity=".75" stroke-width="2" paint-order="fill markers stroke" transform="matrix(-1 0 0 1 1024 0)"><path d="M432 416s20 10-45-27c-36-22-53 28-106-5C166 312 130 66 130 66c0-3 132 85 213 161 71 66 89 189 89 189z" filter="url(#v)" style="mix-blend-mode:normal"/><path d="M370 500s-64 42-124 32c-98-2-182-132-182-127 0 0 130-55 230-11z" filter="url(#v)" style="font-variation-settings:normal;-inkscape-stroke:none"/><path d="M376.115 626.577C352.83 677.401 388.718 730.717 320 800 232.074 888.649 96.35 925.766 96.35 925.766c.435-4.08 31.973-182.961 95.92-299.189 54.843-99.683 144.565-129.335 159.865-121.892 12.123 5.898 23.98 121.892 23.98 121.892z" filter="url(#v)" style="font-variation-settings:normal;-inkscape-stroke:none"/></g><g fill="none" stroke="#c0e0ff" stroke-linejoin="bevel" stroke-opacity=".75" stroke-width="2" paint-order="stroke fill markers"><path d="M130.222 66.351S229.94 245.067 336 328c97.155 75.97 96 96 96 96" filter="url(#w)" style="mix-blend-mode:normal" transform="matrix(-1 0 0 1 1024 0)"/><path d="M96.35 925.766C141.898 859.651 209.986 802.6 256 736c54.736-79.223 85.564-166.088 112.122-216.04M64 406.625s112 24 150 39.089c54.286 17.934 159.274 65.544 159.274 65.544" filter="url(#w)" style="font-variation-settings:normal;-inkscape-stroke:none" transform="matrix(-1 0 0 1 1024 0)"/></g><g fill="url(#prefix__radialGradient3098-1)" stroke="#c0e0ff" stroke-linecap="square" stroke-opacity=".75" stroke-width="2" paint-order="fill markers stroke"><path fill="url(#x)" d="M432 416s20 10-45-27c-36-22-53 28-106-5C166 312 130 66 130 66c0-3 132 85 213 161 71 66 89 189 89 189z" filter="url(#prefix__filter15-7-7)" style="mix-blend-mode:normal"/><path fill="url(#y)" d="M379.84 500s-60 40-150 32.613C148.902 530.846 64 408 64 408s130-42 232-16c92.146 32 64 100 0 119.258z" filter="url(#prefix__filter15-7-7)" style="font-variation-settings:normal;-inkscape-stroke:none"/><path fill="url(#z)" d="M376.115 626.577C352.83 677.401 388.718 730.717 320 800 232.074 888.649 96.35 925.766 96.35 925.766c.435-4.08 31.973-182.961 95.92-299.189 54.843-99.683 144.565-129.335 159.865-121.892 12.123 5.898 23.98 121.892 23.98 121.892z" filter="url(#prefix__filter15-7-7)" style="font-variation-settings:normal;-inkscape-stroke:none"/></g><g fill="none" stroke="#c0e0ff" stroke-linejoin="bevel" stroke-opacity=".75" stroke-width="2" paint-order="stroke fill markers"><path d="M130.222 66.351S229.94 245.067 336 328c97.155 75.97 96 96 96 96" filter="url(#A)" style="mix-blend-mode:normal"/><path d="M96.35 925.766C141.898 859.651 209.986 802.6 256 736c54.736-79.223 85.564-166.088 112.122-216.04M64 406.625s104.155 22.328 150.89 39.089c54.287 17.934 159.275 65.544 159.275 65.544" filter="url(#A)" style="font-variation-settings:normal;-inkscape-stroke:none"/></g><path fill="url(#B)" fill-rule="evenodd" stroke="url(#prefix__radialGradient3100)" stroke-linecap="round" stroke-linejoin="round" stroke-opacity=".75" stroke-width="2" d="M512 256c-141.385 0-256 114.615-256 256 0 140.585 113.334 254.653 253.615 255.94v-24.422C506.384 742.49 504 739.572 504 736c0-.926.173-1.8.467-2.617l-115.594-87.201c-1.36 1.076-3.004 1.818-4.873 1.818-4.413 0-7.99-3.582-7.99-8 0-3.717 2.585-6.703 6.017-7.602l.412-110.804c-3.643-.745-6.439-3.819-6.439-7.686 0-3.887 2.825-6.974 6.496-7.697l.307-82.746c-3.116-1.092-5.383-3.981-5.383-7.473 0-4.418 3.577-8 7.99-8s7.992 3.582 7.992 8c0 3.925-2.877 7.039-6.601 7.719l-.305 82.703c3.168 1.063 5.486 3.965 5.486 7.494 0 3.55-2.347 6.46-5.543 7.506l-.41 110.996c3.404.917 5.961 3.893 5.961 7.59a8 8 0 0 1-.615 3.057l115.428 87.078c.827-.708 1.744-1.313 2.812-1.653v-16.505a8 8 0 0 1-5.615-7.63 8 8 0 0 1 5.615-7.628v-17.09A8 8 0 0 1 504 672a8 8 0 0 1 .838-3.535l-51.899-38.33C451.57 631.242 449.9 632 448 632c-4.413 0-7.99-3.582-7.99-8 0-3.707 2.572-6.688 5.99-7.596v-48.808c-3.418-.908-5.99-3.888-5.99-7.596 0-3.707 2.572-6.688 5.99-7.596v-64.81c-3.415-.91-5.982-3.889-5.982-7.594 0-4.419 3.578-8 7.992-8s7.99 3.582 7.99 8c0 3.711-2.577 6.694-6 7.598v64.806c3.418.908 5.99 3.889 5.99 7.596s-2.572 6.688-5.99 7.596v48.808c3.418.908 5.99 3.889 5.99 7.596 0 1.055-.227 2.05-.597 2.973l52.064 38.457a8 8 0 0 1 2.158-1.059v-48.744A8 8 0 0 1 504 608a8 8 0 0 1 5.615-7.627v-64.746A8 8 0 0 1 504 528a8 8 0 0 1 5.615-7.627v-64.742A8 8 0 0 1 503.99 448a8 8 0 0 1 5.625-7.63v-48.938c-3.337-1.03-5.61-4.08-5.615-7.532 0-4.363 3.582-7.9 8-7.9s8 3.537 8 7.9c-.004 3.453-2.278 6.503-5.615 7.532v48.935a8 8 0 0 1 5.607 7.633 8 8 0 0 1-5.607 7.623v64.742A8 8 0 0 1 520 528a8 8 0 0 1-5.615 7.627v64.738a8 8 0 0 1 2.873 1.61l51.406-38.829a8 8 0 0 1-.654-3.146 8 8 0 0 1 5.832-7.697l-.178-65.032a8 8 0 0 1-.039-14.521l-.303-111.441a8 8 0 0 1-5.312-7.518c0-4.418 3.577-8 7.99-8s7.99 3.582 7.99 8a8 8 0 0 1-4.547 7.209l-.44 111.258a8 8 0 0 1 5.983 7.742 8 8 0 0 1-6.045 7.742l-.255 64.723A8 8 0 0 1 583.99 560c0 4.418-3.577 8-7.99 8a8 8 0 0 1-3.684-.922l-52.435 39.565q.117.673.119 1.357a8 8 0 0 1-5.799 7.688l.08 48.648a7.999 7.999 0 0 1 .024 15.316l.027 17.047c.541.166 1.063.39 1.557.666l117.048-85.66a8 8 0 0 1-.927-3.705 8 8 0 0 1 5.99-7.73v-80.54a8 8 0 0 1-5.99-7.73 8 8 0 0 1 5.99-7.73v-80.54a8 8 0 0 1-5.99-7.73c0-4.418 3.577-8 7.99-8s7.99 3.582 7.99 8a8 8 0 0 1-5.99 7.73v80.526a8 8 0 0 1 5.99 7.744 8 8 0 0 1-5.99 7.73v80.526a8 8 0 0 1 5.99 7.744c0 4.418-3.577 8-7.99 8a8 8 0 0 1-3.363-.746l-117.334 85.869a8 8 0 0 1 .68 3.225 8 8 0 0 1-5.626 7.632l.028 16.502C517.616 729.51 520 732.428 520 736s-2.384 6.49-5.615 7.518v24.421C654.665 766.653 768 652.585 768 512c0-141.385-114.615-256-256-256" filter="url(#prefix__filter3100)" paint-order="fill markers stroke"/><ellipse cx="512" cy="512.643" fill="none" stroke="#c0e0ff" stroke-linecap="round" stroke-linejoin="round" stroke-width="4" filter="url(#C)" paint-order="fill markers stroke" rx="254.963" ry="256.643"/><rect width="383.372" height="7.642" x="576.628" y="988.398" fill="url(#D)" paint-order="stroke fill markers" ry="3.821" style="-inkscape-stroke:none"/><rect width="383.372" height="7.642" x="63.858" y="988.398" fill="url(#E)" paint-order="stroke fill markers" ry="3.821" style="-inkscape-stroke:none"/><path fill="#204080" d="M512.031 960.016c-.664 0-1.329.254-1.838.763l-29.398 29.399a2.594 2.594 0 0 0 0 3.675l29.398 29.399a2.594 2.594 0 0 0 3.676 0l29.399-29.398a2.594 2.594 0 0 0 0-3.676l-29.399-29.399a2.6 2.6 0 0 0-1.838-.763m.397 22.935c4.917 0 8.726 4.058 8.507 9.065-.218 5.006-4.382 9.065-9.3 9.064-4.917 0-8.725-4.059-8.506-9.064.218-5.006 4.381-9.065 9.299-9.065" paint-order="fill markers stroke"/><path fill="url(#F)" d="M512 967.967V960c1.154-.021 1.779.707 1.779.707l29.294 29.292s.227.146.612.762C544 991.266 544 992 544 992s0 .712-.328 1.262C541.895 996.244 536 992 536 992z" paint-order="fill markers stroke"/><path fill="url(#G)" d="M512 968v-8c-1.154-.021-1.758.687-1.758.687l-29.426 29.422s-.204.177-.589.794c-.315.504-.205 1.512-.205 1.512s.029.656.742 1.423c1.682 1.81 7.182-1.838 7.182-1.838z" paint-order="fill markers stroke"/><ellipse cx="512" cy="963.146" fill="url(#H)" paint-order="fill markers stroke" rx="2.197" ry="3.147" style="mix-blend-mode:lighten"/><ellipse cx="512.031" cy="992.015" fill="url(#I)" paint-order="fill markers stroke" rx="9.329" ry="9.541"/><ellipse cx="512.031" cy="992.015" fill="url(#J)" stroke="url(#K)" stroke-linecap="round" stroke-linejoin="round" stroke-width="2.117" paint-order="fill markers stroke" rx="7.469" ry="7.599"/><ellipse cx="512.111" cy="992.015" fill="url(#L)" paint-order="fill markers stroke" rx="9.329" ry="9.541"/><text x="512.929" y="1122.189" fill="url(#M)" stroke-linecap="round" stroke-linejoin="round" stroke-opacity=".746" stroke-width="4" font-family="Exo" font-size="96" font-weight="400" paint-order="fill markers stroke" style="line-height:0;-inkscape-font-specification:Exo;font-variant-ligatures:normal;font-variant-caps:normal;font-variant-numeric:normal;font-variant-east-asian:normal;text-align:center" text-anchor="middle" transform="translate(0 18)">
        <tspan x="512.929" y="1122.189" font-weight="600" style="-inkscape-font-specification:&quot;Exo Semi-Bold&quot;;text-align:center">GIT NAVI</tspan>
    </text><path fill="url(#N)" d="M353.555 1083.205s6.594-.488 9.898-.546c6.663-.118 12.067.25 12.067.25.043.78.022 1.755-.031 2.396-5.013-1.044-25.695-.23-25.695-.23l.031-1.437s.892-.253 3.73-.433" paint-order="fill markers stroke" transform="translate(0 18)"/><path fill="url(#O)" d="M334.203 1054.152s3.188-2.983 11.755-3.555c9.615-.677 21.353 1.724 26.334 2.976.02 1.84.08 1.522.024 2.72-9.15-.81-43.655 3.087-43.655 3.087l-.286-2.135c-.044-.325.414-.532 3.86-1.843z" paint-order="fill markers stroke" transform="translate(0 18)"/><path fill="url(#P)" d="m388.67 1051.48 11.828-.12-.023 5.913-11.832.087c.028-7.995.027-5.882.027-5.882z" paint-order="fill markers stroke" transform="translate(0 18)"/><path fill="url(#Q)" d="m688.786 1051.363 11.827-.119-.022 5.913-11.832.087c.027-7.995.027-5.882.027-5.882z" paint-order="fill markers stroke" transform="translate(0 18)"/><path fill="url(#R)" d="m408.867 1051.48 52.362-.12-.1 5.913-52.379.087c.12-7.995.117-5.882.117-5.882z" paint-order="fill markers stroke" transform="translate(0 18)"/><path fill="url(#S)" d="m504.882 1051.31-.016 4.405-9.71 1.078c.056-4.04.055-5.473.055-5.473 3.224-.033 6.447.023 9.671-.01" paint-order="fill markers stroke" transform="translate(0 18)"/><path fill="url(#T)" d="M537.003 1051.31c2.683.021 11.89.03 11.89.03l.001 5.366-11.925.087c.05-5.425.003-4.384.034-5.483" paint-order="fill markers stroke" transform="translate(0 18)"/><path fill="url(#U)" d="M579.98 1051.31c2.683.021 15.073-.014 15.073-.014l1.768 5.63-18.532-.133c1.045-3.436 1.417-4.406 1.692-5.482z" paint-order="fill markers stroke" transform="translate(0 18)"/><path fill="url(#V)" d="M618.936 1051.31c2.239.021 12.331.017 12.331.017l1.71 5.6-12.094.116c-.971-3.186-1.536-4.656-1.947-5.733" paint-order="fill markers stroke" transform="translate(0 18)"/><path fill="url(#W)" d="M680.249 1051.317c-2.24.021-12.582-.014-12.582-.014l-1.476 5.63 12.11.117c.972-3.186 1.536-4.656 1.948-5.733" paint-order="fill markers stroke" transform="translate(0 18)"/><path fill="url(#X)" d="M579.303 1094.698c4.528.021 22.853.14 22.853.14l-4.794 5.322-20.128.087c-5.069-5.129-5.122-4.03-5.069-5.129z" paint-order="fill markers stroke" transform="translate(0 18)"/><path fill="url(#Y)" d="M649.179 1108.398c.387 1.8.558.096.558.096s2.361 2.56 1.63 3.939c-.798 1.507-2.61 1.645-3.448.367-1.025-1.564 1.26-4.403 1.26-4.403z" paint-order="fill markers stroke" transform="translate(0 18)"/><path fill="url(#Z)" d="M506.595 1054.051c1.434 2.267 30.464 48.05 30.464 48.05l-.002 5.432-32.19-51.818c.002-1.083.01-3.065.015-4.404z" paint-order="fill markers stroke" transform="translate(0 18)"/><path fill="url(#aa)" d="M343.042 1110.851s5.22.668 8.523.61c6.663-.118 12.567-2.469 12.567-2.469.022.397.051 1.005.06 1.681.014 1.12-.517 2.915-1.508 3.36-3.952 1.776-14.79 1.386-20.693 1.016-2.189-.138-4.358-2.03-4.74-4.19a37 37 0 0 1-.594-5.584c-.053-1.444.237-1.476.829-.158.947 2.111 2.708 4.937 5.556 5.734" paint-order="fill markers stroke" transform="matrix(1.07035 0 0 1.03068 -24.277 -16.218)"/><text x="354.077" y="1203.91" fill="url(#ab)" stroke-linecap="round" stroke-linejoin="round" stroke-opacity=".746" stroke-width="4" font-family="Viner Hand ITC" font-size="53.333" font-weight="400" letter-spacing="3" paint-order="fill markers stroke" style="line-height:0;-inkscape-font-specification:&quot;Viner Hand ITC&quot;;text-align:start">
        <tspan x="354.077" y="1203.91" font-family="Fleur De Leah" style="-inkscape-font-specification:&quot;Fleur De Leah&quot;">Just like magic</tspan>
    </text><path fill="url(#ac)" stroke="#a3cef7" stroke-linecap="round" stroke-linejoin="round" stroke-opacity=".414" stroke-width=".5" d="m331.676 1163.01 7.361-3.969-4.146-5.955 6.05 5.774 4.383-5.784-3.622 7.538 6.854 2.381-8.288-1.115-.146 7.255-1.5-8.228z" filter="url(#ad)" paint-order="fill markers stroke" transform="matrix(-.67809 0 0 .74193 913.455 329.495)"/><path fill="url(#ae)" stroke="#a3cef7" stroke-linecap="round" stroke-linejoin="round" stroke-opacity=".414" stroke-width=".5" d="m331.676 1163.01 7.361-3.969-4.146-5.955 6.05 5.774 4.383-5.784-3.622 7.538 6.854 2.381-8.288-1.115-.146 7.255-1.5-8.228z" filter="url(#af)" paint-order="fill markers stroke" transform="matrix(-.69514 -.58238 -.66318 .61045 1668.523 661.89)"/><path fill="url(#ag)" stroke="#a3cef7" stroke-linecap="round" stroke-linejoin="round" stroke-opacity=".414" stroke-width=".5" d="m331.676 1163.01 7.361-3.969-4.146-5.955 6.05 5.774 4.383-5.784-3.622 7.538 6.854 2.381-8.288-1.115-.146 7.255-1.5-8.228z" filter="url(#ah)" paint-order="fill markers stroke" transform="matrix(-.7908 -.14395 -.2105 .77238 1202.125 319.474)"/><path fill="url(#ai)" stroke="#a3cef7" stroke-linecap="round" stroke-linejoin="round" stroke-opacity=".414" stroke-width=".5" d="m331.676 1163.01 7.361-3.969-4.146-5.955 6.05 5.774 4.383-5.784-3.622 7.538 6.854 2.381-8.288-1.115-.146 7.255-1.5-8.228z" filter="url(#aj)" paint-order="fill markers stroke" transform="matrix(.23512 -.4176 .5049 .28428 -315.412 1036.198)"/><path fill="url(#ak)" stroke="#a3cef7" stroke-linecap="round" stroke-linejoin="round" stroke-opacity=".414" stroke-width=".5" d="m331.676 1163.01 7.361-3.969-4.146-5.955 6.05 5.774 4.383-5.784-3.622 7.538 6.854 2.381-8.288-1.115-.146 7.255-1.5-8.228z" filter="url(#al)" paint-order="fill markers stroke" transform="matrix(-.15528 -.65125 .64538 -.17452 -351.028 1628.565)"/><path fill="url(#am)" stroke="#a3cef7" stroke-linecap="round" stroke-linejoin="round" stroke-opacity=".414" stroke-width=".5" d="m331.676 1163.01 7.361-3.969-4.146-5.955 6.05 5.774 4.383-5.784-3.622 7.538 6.854 2.381-8.288-1.115-.146 7.255-1.5-8.228z" filter="url(#an)" paint-order="fill markers stroke" transform="matrix(.17624 -.54217 .5986 .1663 -422.328 1210.135)"/></svg>